<?xml version="1.0" encoding="utf-8"?>
<!-- Generator: Adobe Illustrator 26.0.1, SVG Export Plug-In . SVG Version: 6.00 Build 0)  -->
<svg version="1.1" id="Layer_1" xmlns="http://www.w3.org/2000/svg" xmlns:xlink="http://www.w3.org/1999/xlink" x="0px" y="0px"
	 viewBox="0 0 329 329" style="enable-background:new 0 0 329 329;" xml:space="preserve">
<path d="M189.1,164.8L293.6,60.2c6.8-6.8,6.8-17.8,0-24.6c-6.8-6.8-17.8-6.8-24.6,0L164.5,140.2L60,35.6c-6.8-6.8-17.8-6.8-24.6,0
	c-6.8,6.8-6.8,17.8,0,24.6l104.5,104.5L35.4,269.3c-6.8,6.8-6.8,17.8,0,24.6c3.4,3.4,7.8,5.1,12.3,5.1s8.9-1.7,12.3-5.1l104.5-104.5
	L269,293.9c3.4,3.4,7.8,5.1,12.3,5.1s8.9-1.7,12.3-5.1c6.8-6.8,6.8-17.8,0-24.6L189.1,164.8z"/>
</svg>
