<?xml version="1.0" encoding="utf-8"?>
<!-- Generator: Adobe Illustrator 26.0.1, SVG Export Plug-In . SVG Version: 6.00 Build 0)  -->
<svg version="1.1" id="Layer_1" xmlns="http://www.w3.org/2000/svg" xmlns:xlink="http://www.w3.org/1999/xlink" x="0px" y="0px"
	 viewBox="0 0 277.3 277.3" style="enable-background:new 0 0 277.3 277.3;" xml:space="preserve">
<g id="XMLID_105_">
	<path id="XMLID_106_" d="M148.7,188.8l-40.1,40.1c0,0,0,0,0,0c0,0,0,0,0,0c-16.6,16.6-43.6,16.6-60.1,0c-8-8-12.5-18.7-12.5-30.1
		c0-11.4,4.4-22,12.5-30.1c0,0,0,0,0,0l40.1-40.1c5.5-5.5,5.5-14.5,0-20.1c-5.5-5.5-14.5-5.5-20.1,0l-40.1,40.1c0,0,0,0,0,0
		C15,162.1,7.6,179.9,7.6,198.8c0,18.9,7.4,36.7,20.8,50.1c13.8,13.8,32,20.7,50.1,20.7s36.3-6.9,50.1-20.7v0c0,0,0,0,0,0l40.1-40.1
		c5.5-5.5,5.5-14.5,0-20.1C163.2,183.2,154.2,183.2,148.7,188.8z"/>
	<path id="XMLID_107_" d="M269.7,78.5c0-18.9-7.4-36.7-20.8-50.1c-27.6-27.6-72.6-27.6-100.3,0c0,0,0,0,0,0l-40.1,40.1
		c-5.5,5.5-5.5,14.5,0,20.1c2.8,2.8,6.4,4.2,10,4.2c3.6,0,7.3-1.4,10-4.2l40.1-40.1c0,0,0,0,0,0c16.6-16.6,43.6-16.6,60.1,0
		c8,8,12.5,18.7,12.5,30.1c0,11.4-4.4,22-12.5,30.1c0,0,0,0,0,0l-40.1,40.1c-5.5,5.5-5.5,14.5,0,20.1c2.8,2.8,6.4,4.2,10,4.2
		c3.6,0,7.3-1.4,10-4.2l40.1-40.1c0,0,0,0,0,0C262.3,115.2,269.7,97.4,269.7,78.5z"/>
	<path id="XMLID_108_" d="M88.5,188.8c2.8,2.8,6.4,4.2,10,4.2c3.6,0,7.3-1.4,10-4.2l80.2-80.2c5.5-5.5,5.5-14.5,0-20.1
		c-5.5-5.5-14.5-5.5-20.1,0l-80.2,80.2C83,174.3,83,183.2,88.5,188.8z"/>
</g>
</svg>
