<?xml version="1.0" encoding="utf-8"?>
<!-- Generator: Adobe Illustrator 26.0.1, SVG Export Plug-In . SVG Version: 6.00 Build 0)  -->
<svg version="1.1" id="Capa_1" xmlns="http://www.w3.org/2000/svg" xmlns:xlink="http://www.w3.org/1999/xlink" x="0px" y="0px"
	 viewBox="0 0 512 512" style="enable-background:new 0 0 512 512;" xml:space="preserve">
<path d="M450.1,135.6c-14.4,6.3-29.8,10.5-45.9,12.6c16.5-9.8,29.1-25.3,35-44c-15.4,9.2-32.4,15.6-50.5,19.3
	c-14.6-15.6-35.4-25.2-58.1-25.2c-44.1,0-79.5,35.8-79.5,79.6c0,6.3,0.5,12.4,1.8,18.1c-66.2-3.2-124.7-34.9-164-83.2
	C82.1,124.7,78,138.4,78,153c0,27.6,14.2,52,35.3,66.1c-12.8-0.2-25.3-4-36-9.8c0,0.2,0,0.6,0,0.9c0,38.7,27.6,70.8,63.8,78.2
	c-6.5,1.8-13.5,2.6-20.9,2.6c-5.1,0-10.2-0.3-15.1-1.4c10.3,31.5,39.6,54.7,74.4,55.4c-27.1,21.2-61.5,33.9-98.7,33.9
	c-6.5,0-12.8-0.3-19-1.1c35.3,22.7,77,35.7,122.1,35.7c146.4,0,226.5-121.3,226.5-226.5c0-3.5-0.1-6.9-0.3-10.3
	C426,165.7,439.3,151.8,450.1,135.6z"/>
</svg>
