<?xml version="1.0" standalone="no"?>
<!DOCTYPE svg PUBLIC "-//W3C//DTD SVG 20010904//EN"
 "http://www.w3.org/TR/2001/REC-SVG-20010904/DTD/svg10.dtd">
<svg version="1.0" xmlns="http://www.w3.org/2000/svg"
 width="585.000000pt" height="146.000000pt" viewBox="0 0 585.000000 146.000000"
 preserveAspectRatio="xMidYMid meet">

<g transform="translate(0.000000,146.000000) scale(0.100000,-0.100000)"
fill="#000000" stroke="none">
<path d="M4185 1446 c-75 -34 -108 -127 -67 -192 21 -32 76 -64 111 -64 40 0
90 28 111 62 42 69 18 156 -53 189 -50 22 -62 23 -102 5z"/>
<path d="M1107 1159 c-73 -17 -135 -64 -156 -122 -14 -37 -14 -113 0 -140 55
-107 194 -146 292 -81 l38 25 -46 52 c-34 39 -52 52 -73 52 -35 0 -39 38 -5
43 31 5 73 -20 142 -84 l61 -56 -19 -27 c-33 -46 -70 -128 -81 -177 -13 -59 9
-145 48 -188 112 -120 308 -64 342 99 13 63 -5 155 -46 236 -14 28 -22 55 -17
58 4 4 49 42 100 85 51 42 95 81 98 85 4 7 -57 101 -91 140 -5 6 -100 -67
-164 -126 l-55 -50 -60 54 c-64 58 -178 119 -235 126 -19 2 -52 0 -73 -4z
m370 -523 c7 -55 -3 -96 -22 -96 -35 0 -45 70 -19 127 21 42 34 32 41 -31z"/>
<path d="M1929 1159 c-50 -8 -149 -47 -149 -60 0 -10 71 -129 77 -129 3 0 30
7 60 16 68 20 115 12 143 -23 26 -34 25 -64 -3 -91 -33 -31 -78 -42 -169 -42
l-78 0 0 -85 c0 -84 0 -85 25 -85 14 0 27 -6 29 -12 3 -7 14 -47 26 -88 17
-59 31 -83 64 -116 49 -49 87 -57 251 -52 l100 3 3 83 3 82 -94 0 c-105 0
-117 6 -135 71 l-10 36 53 17 c71 22 128 84 151 161 30 104 -4 195 -98 258
-78 52 -158 70 -249 56z"/>
<path d="M4652 1159 c-105 -18 -152 -64 -160 -156 -5 -65 9 -103 55 -144 19
-16 34 -31 32 -33 -2 -1 -21 -13 -42 -25 -42 -26 -82 -88 -92 -143 -24 -130
122 -261 308 -276 118 -9 245 41 293 113 16 25 16 27 -31 95 -27 39 -51 70
-55 70 -3 0 -22 -16 -41 -36 -48 -51 -79 -64 -149 -64 -55 0 -65 3 -91 29 -46
46 -36 100 22 120 18 6 62 11 99 11 80 0 80 0 80 106 l0 74 -61 0 c-72 0 -99
12 -99 44 0 38 22 46 129 53 l101 6 0 77 0 77 -82 6 c-101 8 -147 7 -216 -4z"/>
<path d="M2398 1153 c-17 -4 -18 -30 -18 -374 l0 -369 104 0 103 0 7 107 c10
156 5 616 -7 631 -9 12 -149 16 -189 5z"/>
<path d="M3197 1153 c-4 -3 -7 -33 -7 -65 l0 -58 -57 0 c-148 0 -268 -39 -347
-111 -70 -64 -99 -123 -99 -199 1 -87 33 -143 118 -207 59 -45 221 -123 254
-123 12 0 44 137 36 151 -4 5 -37 25 -74 44 -86 43 -121 82 -121 137 0 80 86
128 230 128 l60 0 0 -220 0 -220 105 0 105 0 0 369 0 369 -22 6 c-31 8 -173 8
-181 -1z"/>
<path d="M4140 990 c0 -171 0 -171 -26 -195 -27 -25 -103 -55 -140 -55 -81 0
-129 92 -89 169 17 34 34 42 100 50 l50 6 3 89 3 89 -83 -5 c-101 -5 -160 -30
-217 -88 -84 -87 -103 -219 -47 -335 69 -139 240 -202 389 -141 l57 24 0 -94
0 -94 105 0 105 0 -2 373 -3 372 -102 3 -103 3 0 -171z"/>
<path d="M5637 1154 c-4 -4 -7 -42 -7 -85 l0 -77 -177 -4 c-161 -3 -183 -6
-225 -27 -156 -76 -185 -308 -54 -429 65 -60 132 -74 219 -48 126 38 203 172
168 294 l-10 32 40 0 39 0 0 -200 0 -200 110 0 110 0 -2 373 -3 372 -101 3
c-55 1 -103 0 -107 -4z m-291 -355 c19 -31 22 -84 7 -121 -17 -42 -29 -47 -49
-20 -17 21 -18 124 -2 140 15 15 35 15 44 1z"/>
<path d="M170 1141 c-46 -14 -111 -52 -117 -67 -5 -13 54 -154 63 -154 2 0 20
11 40 25 55 37 125 35 165 -4 23 -24 29 -38 29 -74 0 -106 -104 -142 -175 -60
l-21 26 -72 -53 c-40 -29 -72 -55 -72 -59 0 -14 77 -80 120 -102 37 -20 60
-24 135 -24 81 0 95 3 144 30 95 53 141 133 141 249 0 156 -132 278 -299 275
-31 0 -67 -4 -81 -8z"/>
<path d="M642 776 l3 -375 -25 -15 c-14 -9 -31 -20 -39 -25 -11 -7 -3 -22 39
-70 51 -59 53 -60 76 -44 34 22 74 4 74 -32 0 -95 -191 -51 -334 77 l-59 52
-34 -39 c-51 -61 -52 -80 -7 -126 97 -99 257 -171 382 -171 141 0 242 80 249
199 5 74 -22 125 -91 170 -26 18 -43 33 -37 33 8 0 11 105 11 370 l0 370 -105
0 -105 0 2 -374z"/>
</g>
</svg>
